<svg id="Camada_1" data-name="Camada 1" xmlns="http://www.w3.org/2000/svg" viewBox="0 0 1000 500"><defs><style>.cls-1{fill:#1c1c1c;}.cls-2{fill:#ff872c;}</style></defs><path class="cls-1" d="M103,221.72V113.37h25.58V221.72Zm.24-136.24A12.74,12.74,0,1,1,116,98.22,12.73,12.73,0,0,1,103.21,85.48Z"/><path class="cls-1" d="M326.29,156.3v65.22H300.71V159.8c0-25.88-15.59-29.74-24.88-29.74-17.28,0-28,13.06-28,34.08v57.38H222.24V159.8c0-25.88-15.59-29.74-24.88-29.74-17.28,0-28,13.06-28,34.08v57.38H143.76V113.17h25.59v16.64c7.08-12.08,19.7-18.71,35.71-18.71,19.79,0,32.84,8,38.8,23.73,7.45-15.75,20.8-23.73,39.67-23.73C303,111.1,326.3,118.94,326.29,156.3Z"/><path class="cls-1" d="M440.83,158.35c.47,12.88-1.49,25.94-5.45,36.34-6.53,17.12-18.05,27.37-32.45,28.84a40.54,40.54,0,0,1-4.14.22c-10.73,0-16.47-4.74-19.47-9-3.74-5.3-6.66-14.84.63-30.14,5.8-12.17,18.52-27.53,35.49-39-1.42-5.85-3.57-10.67-6.19-13.55-2.15-2.36-4-2.89-7-2.06-17.58,4.93-33.23,55.3-38.45,88.36v45.93H340.17V109.61h23.65v28.73c8.1-15.08,18.61-27.35,32.07-31.12,11.67-3.28,22.62-.11,30.83,8.89a50.09,50.09,0,0,1,10.11,18.3,83.33,83.33,0,0,1,23.88-5.31l1.59,23.6A62.11,62.11,0,0,0,440.83,158.35ZM416.27,175.2a86.09,86.09,0,0,0-7.79,8.47c-6.23,7.82-8.45,13.48-9.11,16.41.33,0,.71,0,1.14-.08,6.82-.7,10.93-8.91,12.77-13.74A59.9,59.9,0,0,0,416.27,175.2Z"/><path class="cls-1" d="M557.85,170.3c8.36,9.23,17.33,25.42,15.82,51.71l-23.61-1.35c.53-9.4-.66-17.67-3.5-24.49-11.43,16-28.95,25.09-49,24.68-17.39-.29-29.61-12.06-29.73-28.62-.12-18.83,16.38-39.33,47.2-40.25a55.67,55.67,0,0,1,20.47,3.31c-.33-6.36-2.35-12-6-15.95-10.62-11.41-40.86-1.76-53.84,4.7l-10.58-21.16c5.68-2.84,56.26-27,81.73.34C557.64,134.79,561.52,152.55,557.85,170.3Zm-28.08,8.21a32.09,32.09,0,0,0-13.14-2.89h-.87c-17.74.52-24.28,10.36-24.24,16.44,0,2.33.76,5,6.46,5.12C515.84,197.47,525.36,186.21,529.77,178.51Z"/><path class="cls-1" d="M667.9,191.28l18.24,12.65-.3.33c-11.73,12.78-28,19.54-47,19.54-35.94,0-61.05-23.17-61.05-56.35s25.11-56.34,61.05-56.34c19,0,35.27,6.75,47,19.53l.3.33-18.25,12.65-.23-.29c-6.71-8.43-17.39-13.27-29.3-13.27-20.5,0-34.27,15-34.27,37.38s13.77,37.39,34.27,37.39c11.57,0,22.52-5,29.31-13.27Z"/><path class="cls-1" d="M775.71,122.23v23.65H733.87c.13,12.57,1.75,25.47,5.7,36.28,6.47,17.74,14.57,16.63,17.23,16.28L760,221.88a38,38,0,0,1-5.07.34c-11.89,0-22.42-5.89-30-16.95-9.77-14.18-14.4-36.82-14.71-59.39H687V122.23h24.46c1.72-13.85,5.12-26.4,10-35.31C729.13,72.84,739,71,744.29,71.18c14.2.45,23.83,8.33,25.74,21.08,1.41,9.37-1.76,20.36-7,30ZM746.55,95.3a7.39,7.39,0,0,0-2.07-.43c-3.49,2.86-6.82,12.56-8.8,25.17A48.12,48.12,0,0,0,745,104.71C747.05,99.24,746.8,96.17,746.55,95.3Z"/><path class="cls-1" d="M902,167.45c0,33.17-25.21,56.34-61.3,56.34-36.24,0-61.54-23.17-61.54-56.34s25.31-56.35,61.54-56.35S902,134.27,902,167.45Zm-26.31,0c0-22.71-13.73-37.38-35-37.38s-35.23,14.67-35.23,37.38,13.83,37.39,35.23,37.39S875.69,190.16,875.69,167.44Z"/><path class="cls-1" d="M190.72,375.34c8.36,9.23,17.33,25.42,15.82,51.71l-23.61-1.35c.53-9.4-.66-17.67-3.5-24.49-11.43,16-29,25.09-49,24.67-17.39-.28-29.61-12.05-29.72-28.61-.13-18.83,16.37-39.33,47.19-40.25a55.67,55.67,0,0,1,20.47,3.31c-.33-6.36-2.34-12.05-6-15.95-10.61-11.41-40.85-1.76-53.84,4.7L98,327.92c5.68-2.84,56.27-27,81.74.34C190.51,339.83,194.39,357.59,190.72,375.34Zm-28.08,8.21a31.93,31.93,0,0,0-13.14-2.89h-.87c-17.74.52-24.28,10.36-24.24,16.44,0,2.33.77,5,6.46,5.12C148.71,402.51,158.23,391.25,162.64,383.55Z"/><path class="cls-1" d="M326.94,361.33v65.23H301.35V364.84c0-24.58-14.18-29.74-26.08-29.74-17,0-34.27,11.7-34.27,34.08v57.38H215.41V318.2H241v18.28c8.95-13.31,23.51-20.34,42.21-20.34C303.16,316.14,326.94,324,326.94,361.33Z"/><path class="cls-1" d="M340.81,426.76V318.41h25.58V426.76Zm.24-136.24a12.74,12.74,0,1,1,12.74,12.74A12.75,12.75,0,0,1,341.05,290.52Z"/><path class="cls-1" d="M564.14,361.33v65.23H538.56V364.84c0-25.88-15.59-29.74-24.88-29.74-17.28,0-28,13.06-28,34.08v57.38H460.08V364.84c0-25.88-15.59-29.74-24.88-29.74-17.28,0-28,13.06-28,34.08v57.38H381.6V318.2h25.59v16.65c7.09-12.08,19.71-18.71,35.71-18.71,19.8,0,32.84,8,38.8,23.73,7.46-15.75,20.8-23.73,39.68-23.73C540.89,316.14,564.14,324,564.14,361.33Z"/><path class="cls-1" d="M654.15,356.58v-1.23c0-12.3-11.38-20.25-29-20.25-13.31,0-24.19,4.66-31.47,13.48l-.24.28-.29-.21L575.23,336l.3-.33c11.84-13,28.7-19.54,50.12-19.54,33.35,0,54.08,14.86,54.08,38.79v71.84H654.14V413.59c-8.77,9.84-22.69,15.24-39.32,15.24-25.25,0-41.56-11.9-41.56-30.33,0-8.54,3.48-16.14,10.34-22.59C599.76,360.72,631.41,355.27,654.15,356.58Zm0,32.63V369.36H652.8c-16,0-37.49,3.53-47.78,13.65a17.58,17.58,0,0,0-5.7,12.8c0,11.74,11.86,15.92,23,15.92C640.15,411.73,654.14,401.84,654.14,389.21Z"/><path class="cls-1" d="M693.7,426.76V275.26h25.58v151.5Z"/><path class="cls-2" d="M757.4,413.58a13,13,0,1,1-13-13A13,13,0,0,1,757.4,413.58Z"/></svg>