<svg id="Camada_1" data-name="Camada 1" xmlns="http://www.w3.org/2000/svg" viewBox="0 0 1000 1000"><defs><style>.cls-1{fill:#ff872c;}.cls-2{fill:#1c1c1c;}.cls-3{fill:#ececec;}</style></defs><circle class="cls-1" cx="508.5" cy="501.86" r="449.91"/><path class="cls-2" d="M145.75,349.3a6.82,6.82,0,1,1,9-3.42A6.81,6.81,0,0,1,145.75,349.3Zm66.49,30-52.92-23.8,5.61-12.49,52.92,23.8Z"/><path class="cls-2" d="M243.61,260.57l28.72,19.88-7.79,11.27-27.18-18.81c-11.4-7.89-17.85-2.2-20.68,1.89-5.28,7.61-2.79,16.32,6.47,22.73L248.43,315l-7.81,11.27-27.18-18.8c-11.39-7.89-17.85-2.21-20.68,1.89-5.27,7.61-2.79,16.32,6.47,22.72l25.28,17.49-7.8,11.27-47.73-33,7.8-11.27,7.33,5.07c-3.16-6.81-2.23-14.38,2.65-21.43,6-8.72,13.52-12,22.27-9.86-4.66-8.08-4.11-16.39,1.64-24.71C216.62,257,227.16,249.19,243.61,260.57Z"/><path class="cls-2" d="M294.78,219.06a51.13,51.13,0,0,1,10.49,16.66c3.34,9.23,2.24,17.42-3.08,23.06-.54.56-1.08,1.07-1.61,1.53-4.35,3.76-8.34,3.84-11,3.17-3.37-.85-7.9-3.7-10.29-12.46-1.91-7-2.11-17.65.75-28.26a17.11,17.11,0,0,0-7.25-3.33,3.18,3.18,0,0,0-3.55,1.61c-5.42,8.15,5.85,34.06,15.29,49.31L300.57,289,291,297.26l-54.09-62.78,9.6-8.27,10,11.66c-2-9-2-17.61,2.13-23.85a15.73,15.73,0,0,1,15.62-7.17,26.73,26.73,0,0,1,10.51,3.89,44.31,44.31,0,0,1,7.84-10.51l8.9,9A33,33,0,0,0,294.78,219.06Zm-4.08,15.43a46.86,46.86,0,0,0-.2,6.16c.2,5.36,1.28,8.43,2,9.85l.44-.43c2.52-2.67,1.32-7.44.37-10A31.47,31.47,0,0,0,290.7,234.49Z"/><path class="cls-2" d="M353.48,190.25c6.36,2.05,14.85,7.15,21.19,19.75l-11.31,5.7a29.92,29.92,0,0,0-8.18-10.43,30.88,30.88,0,0,1-16.1,24.57c-8.14,4.53-17,2.34-21.45-5.31-5.11-8.69-2.94-22.62,11.1-31.31a29.91,29.91,0,0,1,10.39-3.94,13.5,13.5,0,0,0-7.05-5.8c-8-2.45-19.42,10.13-23.71,16.6l-10.58-7c1.87-2.84,18.85-27.61,38-21.74C343.87,173.84,350.43,181,353.48,190.25Zm-10.82,11.34a17.09,17.09,0,0,0-6.86,2.17l-.41.24c-8.08,5-8.48,11.31-6.83,14.12.63,1.08,1.69,2.13,4.37.64C341.28,214.11,342.68,206.34,342.66,201.59Z"/><path class="cls-2" d="M413.29,178.46l11.5,3-.09.22c-3.54,8.6-10.46,15-20,18.5-18.07,6.64-35-.37-41.1-17s2.22-33,20.29-39.6c9.56-3.52,19-3.12,27.24,1.14l.21.11-6.84,9.73-.17-.1a19.77,19.77,0,0,0-17.18-1.27c-10.31,3.79-14.46,13.88-10.33,25.13s13.83,16.25,24.14,12.47a20.35,20.35,0,0,0,12.28-12.09Z"/><path class="cls-2" d="M462,130l2.48,12.42-22,4.38c1.38,6.59,3.58,13.2,6.79,18.46,5.26,8.64,9.39,7.21,10.76,6.74l4.13,12a20,20,0,0,1-2.62.71c-6.26,1.25-12.4-.74-17.56-5.75-6.61-6.43-11.42-17.84-13.94-29.66l-12.18,2.44-2.48-12.43,12.85-2.56c-.55-7.46-.08-14.4,1.54-19.6,2.56-8.2,7.57-10.19,10.35-10.66,7.51-1.25,13.38,1.88,15.73,8.37,1.72,4.78,1.21,10.89-.56,16.49Zm-18.14-11.09a3.85,3.85,0,0,0-1.13,0c-1.53,1.87-2.27,7.31-2,14.14a25.54,25.54,0,0,0,3.31-9C444.5,120.87,444.06,119.29,443.83,118.86Z"/><path class="cls-2" d="M535.86,150.71c.49,17.76-12.67,30.54-32,31.07s-33.29-11.49-33.78-29.25,12.71-30.54,32.11-31.07S535.36,133,535.86,150.71Zm-14.08.39c-.34-12.16-7.91-19.81-19.29-19.5s-18.65,8.38-18.31,20.54,8,19.81,19.42,19.49S522.11,163.25,521.78,151.1Z"/><path class="cls-2" d="M629.82,172.36c2.95,6,5.18,15.64.53,29l-12-4.18A29.86,29.86,0,0,0,620.2,184a30.86,30.86,0,0,1-28.85,5.5c-8.92-2.71-13.47-10.58-11.09-19.12,2.71-9.71,14.23-17.84,30.23-13.77a30.06,30.06,0,0,1,10.06,4.72,13.46,13.46,0,0,0-.74-9.09c-3.78-7.44-20.77-6.93-28.41-5.52l-2.33-12.45c3.35-.63,32.95-5.63,42,12.22C635,154,634.33,163.76,629.82,172.36Zm-15.66.09a17.26,17.26,0,0,0-6.34-3.43l-.46-.12c-9.2-2.34-14,1.76-14.9,4.89-.33,1.21-.34,2.71,2.57,3.59C604.19,180.16,610.75,175.76,614.16,172.45Z"/><path class="cls-2" d="M700.63,196.71,685.11,228l-12.27-6.09,14.67-29.62c5.85-11.8.26-17.66-5.44-20.49-8.18-4-19.24-2.53-24.56,8.21l-13.65,27.55-12.28-6.09,25.77-52,12.28,6.09-4.34,8.77c7.46-4.26,16.12-4.17,25.09.27C700,169.36,709.51,178.78,700.63,196.71Z"/><path class="cls-2" d="M688.52,231.83l32.2-48.29,11.4,7.6-32.2,48.29Zm40.59-60.65a6.83,6.83,0,1,1,1.9,9.46A6.83,6.83,0,0,1,729.11,171.18Z"/><path class="cls-2" d="M800.37,282.51l-24.39,25L766.17,298l23.08-23.66c9.68-9.93,5.14-17.24,1.58-20.72-6.62-6.46-15.63-5.47-23.49,2.6l-21.46,22-9.81-9.57,23.08-23.66c9.68-9.93,5.15-17.24,1.59-20.72-6.63-6.46-15.63-5.47-23.49,2.6l-21.47,22L706,239.25,746.5,197.7l9.81,9.57-6.22,6.38c7.23-2,14.55.2,20.69,6.18,7.59,7.41,9.61,15.35,6,23.61,8.74-3.25,16.85-1.32,24.08,5.75C808.35,256.48,814.34,268.19,800.37,282.51Z"/><path class="cls-2" d="M829.09,326.37l.56-.35c5.6-3.48,6-10.9,1-18.91-3.76-6.06-9-9.69-15-10.5l-.19,0v-.2l.68-11.73.23,0c9.25,1.72,17,7.53,23.06,17.27,9.44,15.18,8.53,28.81-2.36,35.58L804.4,357.85l-7.24-11.64,6-3.72c-7-1.21-13.35-6-18-13.58-7.14-11.49-6.34-22.28,2-27.49a16.22,16.22,0,0,1,13.2-1.68C811.83,302.8,823.26,315.65,829.09,326.37Zm-14.84,9.22,9-5.61-.38-.61c-4.53-7.29-12.21-16.06-19.72-17.88a9.46,9.46,0,0,0-7.44,1c-5.33,3.32-3.89,9.9-.75,15C800.05,335.6,808.5,339.16,814.25,335.59Z"/><path class="cls-2" d="M805.77,363l73.58-34.25,5.78,12.42-73.57,34.25Z"/><path class="cls-2" d="M154.76,629.2l54.58-19.71L214,622.38l-54.58,19.7Zm68.67-24.66a6.82,6.82,0,1,1-4.1,8.73A6.81,6.81,0,0,1,223.43,604.54Z"/><path class="cls-2" d="M244.15,726.07l-29.93,18-7.07-11.74,28.32-17.07c11.87-7.15,9.33-15.38,6.77-19.64-4.79-7.93-13.75-9.24-23.39-3.43L192.52,708.1l-7.08-11.74,28.32-17.07c11.88-7.15,9.34-15.38,6.77-19.64-4.78-7.93-13.73-9.24-23.39-3.43l-26.32,15.87-7.08-11.74,49.72-30,7.08,11.74-7.64,4.6c7.5-.09,14,3.87,18.46,11.21,5.47,9.08,5.42,17.28-.16,24.37,9.29-.94,16.64,3,21.86,11.64C258.46,702.9,261.29,715.74,244.15,726.07Z"/><path class="cls-2" d="M291.9,772a51.13,51.13,0,0,1-15.55,12.06c-8.86,4.22-17.12,3.93-23.24-.82a21.15,21.15,0,0,1-1.69-1.45c-4.16-4-4.63-7.93-4.22-10.68.51-3.43,2.9-8.22,11.39-11.45,6.75-2.57,17.36-3.81,28.19-2a17,17,0,0,0,2.6-7.54,3.18,3.18,0,0,0-1.93-3.38c-8.64-4.59-33.33,9.13-47.58,20l-17,17.8-9.16-8.75,57.2-59.93,9.17,8.75-10.63,11.13c8.71-2.85,17.33-3.72,23.94-.2a15.71,15.71,0,0,1,8.66,14.85,27.09,27.09,0,0,1-2.85,10.83A44.91,44.91,0,0,1,310.42,768l-8.11,9.73A33.33,33.33,0,0,0,291.9,772Zm-15.75-2.56a46.72,46.72,0,0,0-6.15.4c-5.31.72-8.26,2.1-9.6,3,.13.12.29.25.47.39,2.9,2.25,7.53.6,10-.6A31.93,31.93,0,0,0,276.15,769.46Z"/><path class="cls-2" d="M343.18,814.65c1.13,6.58.56,16.48-7.66,27.94l-10.3-7.37a30,30,0,0,0,5.44-12.1,30.91,30.91,0,0,1-29.25-2.86c-7.78-5.12-9.94-13.94-5.24-21.47,5.33-8.56,18.68-13.11,32.89-4.69a29.67,29.67,0,0,1,8.32,7.37,13.48,13.48,0,0,0,1.86-8.94c-1.53-8.21-18-12.51-25.71-13.3l1.27-12.61c3.39.34,33.22,3.89,36.9,23.58C353.26,798.52,349.92,807.68,343.18,814.65Zm-15.07-4.33a17,17,0,0,0-5.12-5.07c-.12-.09-.26-.17-.39-.25-8.18-4.84-14-2.26-15.69.5-.66,1.06-1.09,2.49,1.46,4.17C316.38,814.91,323.91,812.55,328.11,810.32Z"/><path class="cls-2" d="M397,850.52l6.56,9.92-.22.1c-8.37,4-17.8,4.15-27.25.37-17.88-7.15-25.76-23.66-19.17-40.16s23.7-23,41.57-15.89c9.46,3.79,16.2,10.38,19.49,19.07l.09.22-11.59,2.67-.06-.2a19.76,19.76,0,0,0-11.93-12.42c-10.2-4.08-20,.65-24.48,11.77s-.58,21.34,9.61,25.42a20.32,20.32,0,0,0,17.21-.78Z"/><path class="cls-2" d="M466.62,829.52l-2.69,12.39L442,837.14a59.93,59.93,0,0,0-1.14,19.65c1.36,10,5.73,10.36,7.17,10.48l-1,12.63a21.14,21.14,0,0,1-2.7-.39c-6.22-1.36-11.06-5.64-13.79-12.3-3.5-8.53-3.34-20.92-.93-32.76l-12.14-2.64,2.69-12.38L433,822.21c2.47-7.06,5.68-13.24,9.24-17.35,5.63-6.5,11-6.32,13.76-5.64,7.38,1.85,11.52,7.07,11.07,14-.33,5.07-3.24,10.47-7.1,14.9Zm-12.2-17.41a3.64,3.64,0,0,0-1-.46c-2.15,1.09-5,5.79-7.47,12.17a25.66,25.66,0,0,0,6.64-7C454.23,814.22,454.45,812.59,454.42,812.11Z"/><path class="cls-2" d="M533,857.05c-.63,17.76-14.56,29.69-33.88,29s-32.51-13.57-31.89-31.33,14.61-29.68,34-29S533.66,839.29,533,857.05Zm-14.09-.5c.43-12.16-6.65-20.27-18-20.67s-19.13,7.19-19.56,19.35,6.7,20.27,18.16,20.68S518.53,868.71,519,856.55Z"/><path class="cls-2" d="M632.06,837.48c5.69,3.48,12.74,10.45,15.94,24.18l-12.34,2.88a29.66,29.66,0,0,0-5.5-12.06,30.86,30.86,0,0,1-21.43,20.08c-9,2.48-17-1.71-19.6-10.21-2.9-9.65,2.47-22.68,18.17-27.81a29.73,29.73,0,0,1,11-1.39,13.48,13.48,0,0,0-5.49-7.3c-7.17-4.25-21.26,5.27-27,10.56l-8.63-9.28c2.48-2.32,24.82-22.39,42-12.18C626.58,819.27,631.26,827.81,632.06,837.48ZM618.87,846a17.26,17.26,0,0,0-7.19.49c-.15,0-.3.09-.44.15-9,2.94-10.92,9-10,12.1.35,1.2,1.14,2.47,4.08,1.66C614.58,857.79,617.77,850.57,618.87,846Z"/><path class="cls-2" d="M698.52,797.13l16.21,31-12.14,6.36-15.34-29.29c-6.11-11.66-14.12-10.59-19.77-7.63-8.08,4.23-13.36,14.07-7.79,24.69L674,849.44l-12.14,6.36-26.93-51.42L647,798l4.54,8.67c1-8.54,6.11-15.49,15-20.14C676,781.59,689.24,779.41,698.52,797.13Z"/><path class="cls-2" d="M684,759.76a6.82,6.82,0,1,1,9.51,1.6A6.81,6.81,0,0,1,684,759.76Zm42.21,59.51L692.56,772l11.16-7.94,33.65,47.26Z"/><path class="cls-2" d="M795.61,707.29l25.36,24-9.42,10-24-22.73c-10.07-9.54-17.32-4.9-20.73-1.29-6.37,6.72-5.25,15.7,2.93,23.45l22.31,21.14-9.43,9.95-24-22.74c-10.07-9.53-17.32-4.89-20.74-1.28-6.36,6.72-5.24,15.7,2.94,23.45l22.3,21.14-9.42,9.95-42.13-39.92,9.43-10,6.47,6.13c-2.09-7.21,0-14.56,5.88-20.78,7.29-7.7,15.2-9.83,23.52-6.35-3.38-8.7-1.56-16.82,5.39-24.17C769.47,699.68,781.08,693.52,795.61,707.29Z"/><path class="cls-2" d="M817.81,659.1l-.58-.31c-5.77-3.19-12.44.09-17,8.35-3.45,6.24-4.07,12.55-1.81,18.25l.07.18-.18.08-10.57,5.15-.07-.23c-3-8.9-1.75-18.51,3.78-28.56,8.63-15.64,21-21.52,32.18-15.33l33.69,18.57-6.61,12-6.18-3.41c2.35,6.66,1.29,14.58-3,22.39-6.53,11.84-16.33,16.41-25,11.65a16.2,16.2,0,0,1-7.92-10.69C805.68,685.68,811.3,669.43,817.81,659.1Zm15.29,8.44-9.3-5.13c-.11.2-.24.41-.35.62-4.14,7.52-8,18.51-6,25.94a9.43,9.43,0,0,0,4.53,6c5.51,3,10.53-1.45,13.4-6.65C840.06,679.93,839,670.8,833.1,667.54Z"/><path class="cls-2" d="M862.17,651.88l-75.51-29.74,5-12.75,75.51,29.73Z"/><path class="cls-3" d="M560.35,620.11c-8,19.88-20.56,32.53-39.89,39.09-27,9.14-66-7-72.51-47.08-4.51-27.67,2.21-53.36,12.72-78.45,9.24-22.08,21.23-42.53,38.84-59,3.34-3.14,9.15-6.21,13.26-5.58,50.68,7.68,95.48,26.93,125.67,70.57,24.2,35,6.92,79-34.4,89.31-14.92,3.73-29.34-.21-43.69-8.81"/><path class="cls-3" d="M699,412.74C696,436,687.54,458.93,663.6,473c-18.75,11-37.53,4.74-46-15-11.4-26.55,3.3-70.4,28.46-84.88,25-14.36,48.07-3.1,52.15,25.49.53,3.74.44,7.58.78,14.12"/><path class="cls-3" d="M573.21,364.85c-.52,21.49-5.72,41-25.45,53.09-13,7.95-30.13,3.52-39.2-9a76.59,76.59,0,0,1-1.53-88c12.86-19.22,38-20,52.25-1.51,10.3,13.34,14.77,28.56,13.93,45.44"/><path class="cls-3" d="M452.6,389.33c10.82,18.57,16.63,37.92,6.15,58.55-6.9,13.57-23.82,18.79-38.12,12.86a76.58,76.58,0,0,1-47.41-74.15c.87-23.11,21.86-36.94,43.7-28.67,15.76,6,27.55,16.59,35.68,31.41"/><path class="cls-3" d="M364.73,564.91c-26.05-3.27-51-12.83-64-41.24-7.93-17.3,1.06-36.55,19.11-42.16,28.65-8.9,66.4,5.18,82.62,30.84,14.67,23.2,2.64,48.43-24.7,51.73-3.41.42-6.88.45-13,.83"/><path class="cls-2" d="M584.69,650.29c-11,0-22.34-3.57-34.38-10.78l-3.42-2,4.1-6.84,3.42,2c14.68,8.8,28,11.53,40.68,8.36,18.65-4.66,32.93-16.84,39.18-33.43,6.13-16.24,3.54-34.37-7.09-49.74l-2.27-3.28,6.55-4.54,2.27,3.28c12.15,17.55,15.07,38.36,8,57.09-7.19,19.08-23.49,33.06-44.72,38.36A51,51,0,0,1,584.69,650.29Z"/><path class="cls-2" d="M496.78,681.68a61.72,61.72,0,0,1-31.56-8.91c-15.75-9.46-26.11-25.1-29.2-44-4-24.7,0-49.57,13-80.63,10.71-25.58,23.73-45.35,39.79-60.42,4-3.78,10.93-7.45,16.59-6.62l3.94.6-1.19,7.89-3.95-.6c-2.33-.35-7,1.77-9.93,4.55-15.44,14.48-27.49,32.81-37.9,57.68-12.39,29.6-16.23,53.13-12.46,76.27,2.7,16.58,11.74,30.24,25.44,38.47,12.9,7.76,28.94,9.86,41.86,5.47,17.92-6.08,29.83-17.77,37.47-36.79l1.48-3.7,7.4,3-1.48,3.7c-8.58,21.35-22,34.49-42.31,41.37A52.78,52.78,0,0,1,496.78,681.68Z"/><path class="cls-2" d="M607.52,479.23,606,475.56c-12.14-28.28,3.35-74.49,30.13-89.91,13.25-7.63,26.61-8.86,37.62-3.5S692,398.85,694.16,414a77,77,0,0,1,.58,8.5c.06,1.73.12,3.68.25,6l.21,4-8,.42-.22-4c-.12-2.35-.19-4.35-.25-6.12a74.33,74.33,0,0,0-.5-7.65c-1.78-12.48-7.48-21.66-16.06-25.84s-19.27-3-30.16,3.24c-23.33,13.44-37.35,55.23-26.78,79.86l1.58,3.66Z"/><path class="cls-2" d="M654.2,494.45l-4.05-6.88,3.44-2c19.28-11.34,29.92-29.56,33.46-57.34l.51-3.95,7.9,1-.5,4c-3.83,30-16,50.68-37.33,63.21Z"/><path class="cls-2" d="M511.86,439.22l-3.45-2a35.54,35.54,0,0,1-11.07-10,80.36,80.36,0,0,1-1.61-92.55c6.83-10.2,17.27-16.28,28.65-16.66s22.45,5.05,30.07,14.93c10.69,13.86,15.65,30,14.75,48.08l-.2,4-8-.39.2-4c.8-16.09-3.61-30.5-13.11-42.81-6-7.82-14.61-12.17-23.48-11.83s-16.91,5.08-22.29,13.13a72.45,72.45,0,0,0,1.44,83.44,27.6,27.6,0,0,0,8.59,7.76l3.46,2Z"/><path class="cls-2" d="M568.83,389l-8-.42.21-4c.07-1.28.12-2.56.15-3.85l.11-4,8,.21-.11,4c0,1.36-.08,2.72-.15,4.06Z"/><path class="cls-2" d="M424.78,483.13a35.56,35.56,0,0,1-13.67-2.74,80.33,80.33,0,0,1-49.86-78A38.22,38.22,0,0,1,367,383.27l2.15-3.36,6.71,4.3-2.14,3.36a30.32,30.32,0,0,0-4.55,15.15,72.45,72.45,0,0,0,45,70.31c12.7,5.28,27.22.47,33-11a44.64,44.64,0,0,0,4-30.69l-.84-3.9,7.8-1.67.83,3.9a52.35,52.35,0,0,1-4.65,36C448.7,476.7,437.08,483.13,424.78,483.13Z"/><path class="cls-2" d="M353,585.11l-.48-8,4-.24c2.2-.13,4.06-.23,5.7-.31,2.85-.14,5-.24,7.12-.49l4-.48,1,7.91-4,.48c-2.34.28-4.7.4-7.68.55-1.61.08-3.44.17-5.6.3Z"/><path class="cls-2" d="M360.2,585.34l-3.95-.49c-21.48-2.7-51.8-10.14-67.11-43.54a34.13,34.13,0,0,1-.33-28.49,35.33,35.33,0,0,1,21.87-19.14c25.16-7.81,58,1.1,78.07,21.2a65.74,65.74,0,0,1,9.11,11.32l2.13,3.37-6.74,4.26-2.13-3.37a57.68,57.68,0,0,0-8-10C365,502.39,335.55,494.3,313.05,501.3a27.26,27.26,0,0,0-16.95,14.77,26.2,26.2,0,0,0,.29,21.92c10.39,22.66,29.72,35,60.85,38.94l3.95.5Z"/><circle class="cls-3" cx="159.52" cy="495.78" r="11.26"/><circle class="cls-3" cx="861.86" cy="495.78" r="11.26"/></svg>